<svg xmlns="http://www.w3.org/2000/svg" version="1.1" xmlns:xlink="http://www.w3.org/1999/xlink" xmlns:svgjs="http://svgjs.com/svgjs" width="1440" height="560" preserveAspectRatio="none" viewBox="0 0 1440 560"><g mask="url(&quot;#SvgjsMask1090&quot;)" fill="none"><rect width="1440" height="560" x="0" y="0" fill="rgba(96, 129, 236, 0.53)"></rect><path d="M0,574.171C121.405,578.933,264.213,633.785,356.59,554.866C450.766,474.41,392.445,315.208,437.964,200.011C479.919,93.834,615.357,26.284,610.526,-87.78C605.707,-201.569,482.775,-267.985,414.29,-358.985C339.641,-458.174,310.16,-615.947,189.889,-646.702C68.94,-677.63,-34.98,-556.545,-147.596,-502.666C-240.427,-458.253,-339.234,-429.572,-413.296,-358.123C-492.168,-282.034,-553.699,-189.563,-581.92,-83.667C-612.427,30.805,-622.974,154.431,-579.231,264.526C-534.482,377.152,-445.933,470.448,-339.056,527.582C-236.369,582.477,-116.35,569.608,0,574.171" fill="rgba(81, 117, 234, 0.53)"></path><path d="M1440 952.302C1523.048 961.174 1617.009 989.7719999999999 1685.257 941.627 1753.504 893.483 1747.438 792.057 1777.5729999999999 714.164 1805.551 641.845 1861.854 577.507 1856.039 500.183 1850.095 421.144 1797.98 354.688 1746.038 294.817 1694.121 234.97500000000002 1634.097 180.15300000000002 1558.324 157.02499999999998 1482.127 133.767 1402.127 148.89299999999997 1324.341 166.101 1241.604 184.404 1149.191 195.889 1093.591 259.835 1037.971 323.804 1031.343 416.692 1032.761 501.448 1034.036 577.643 1067.414 646.418 1101.204 714.723 1134.005 781.029 1165.689 850.121 1226.256 892.5930000000001 1288.076 935.944 1364.922 944.2819999999999 1440 952.302" fill="rgba(111, 141, 238, 0.53)"></path></g><defs><mask id="SvgjsMask1090"><rect width="1440" height="560" fill="#ffffff"></rect></mask></defs></svg>