<svg xmlns="http://www.w3.org/2000/svg" version="1.1" xmlns:xlink="http://www.w3.org/1999/xlink" xmlns:svgjs="http://svgjs.com/svgjs" width="1440" height="560" preserveAspectRatio="none" viewBox="0 0 1440 560"><g mask="url(&quot;#SvgjsMask1831&quot;)" fill="none"><rect width="1440" height="560" x="0" y="0" fill="url(#SvgjsLinearGradient1832)"></rect><path d="M1440 0L1084.72 0L1440 126.9z" fill="rgba(255, 255, 255, .1)"></path><path d="M1084.72 0L1440 126.9L1440 227.08L760.61 0z" fill="rgba(255, 255, 255, .075)"></path><path d="M760.61 0L1440 227.08L1440 382.39L628.62 0z" fill="rgba(255, 255, 255, .05)"></path><path d="M628.62 0L1440 382.39L1440 496.86L247.41000000000003 0z" fill="rgba(255, 255, 255, .025)"></path><path d="M0 560L320.05 560L0 432.34000000000003z" fill="rgba(0, 0, 0, .1)"></path><path d="M0 432.34000000000003L320.05 560L528.79 560L0 279.27000000000004z" fill="rgba(0, 0, 0, .075)"></path><path d="M0 279.27L528.79 560L999.5799999999999 560L0 235.58999999999997z" fill="rgba(0, 0, 0, .05)"></path><path d="M0 235.58999999999997L999.5799999999999 560L1188.94 560L0 149.23999999999998z" fill="rgba(0, 0, 0, .025)"></path></g><defs><mask id="SvgjsMask1831"><rect width="1440" height="560" fill="#ffffff"></rect></mask><linearGradient x1="50%" y1="0%" x2="50%" y2="100%" gradientUnits="userSpaceOnUse" id="SvgjsLinearGradient1832"><stop stop-color="#0e2a47" offset="0"></stop><stop stop-color="rgba(44, 87, 160, 0.48)" offset="1"></stop></linearGradient></defs></svg>